# xmcd
#
# Track frame offsets:
#  150
#  17572
#  35275
#  59640
#  86655
#  109600
#  136427
#  147915
#  170092
#  184562
#  218805
#  220925
#
# Disc length: 3063 seconds
#
# Revision: 0
# Processed by: cddbd v1.4PL0 Copyright (c) Steve Scherf et al.
# Submitted via: AltoMP3_Maker 3.0
#
DISCID=ad0bf50c
DTITLE=Ivan Sand - Du Milde Himmel
DYEAR=1900
DGENRE=
TTITLE0=Jeg elsker den brogede verden
TTITLE1=En lærke letted
TTITLE2=De bøgelyse øer
TTITLE3=Skærslipperens forårssang
TTITLE4=Sig nærmer tiden
TTITLE5=Skamlingsbanken
TTITLE6=Den gamle vaklende rønne
TTITLE7=Skipper Clements Morgensang
TTITLE8=Hvor jeg så end vandrer
TTITLE9=Nu er det længe siden
TTITLE10=Vægtersangen
TTITLE11=I danmark er jeg født
EXTD=
EXTT0=
EXTT1=
EXTT2=
EXTT3=
EXTT4=
EXTT5=
EXTT6=
EXTT7=
EXTT8=
EXTT9=
EXTT10=
EXTT11=
PLAYORDER=
